<?xml version="1.0" encoding="UTF-8"?>
<!DOCTYPE svg PUBLIC "-//W3C//DTD SVG 1.1//EN" "http://www.w3.org/Graphics/SVG/1.1/DTD/svg11.dtd">
<!-- Creator: CorelDRAW -->
<svg xmlns="http://www.w3.org/2000/svg" xml:space="preserve" width="45.3232mm" height="10.735mm" version="1.1" style="shape-rendering:geometricPrecision; text-rendering:geometricPrecision; image-rendering:optimizeQuality; fill-rule:evenodd; clip-rule:evenodd"
viewBox="0 0 19415.07 4598.55"
 xmlns:xlink="http://www.w3.org/1999/xlink"
 xmlns:xodm="http://www.corel.com/coreldraw/odm/2003">
 <defs>
  <style type="text/css">
   <![CDATA[
    .fil1 {fill:#FFC80B}
    .fil0 {fill:#1A1A1A}
   ]]>
  </style>
 </defs>
 <g id="Camada_x0020_1">
  <metadata id="CorelCorpID_0Corel-Layer"/>
  <g id="_2749477731504">
   <g>
    <path class="fil0" d="M5271.6 3647.35l186.04 -484.19 68.92 0 198.29 484.19 -73.04 0 -56.5 -146.59 -202.53 0 -53.16 146.59 -68.03 0zm13690.26 0l185.91 -484.19 69.01 0 198.25 484.19 -73.08 0 -56.42 -146.5 -202.62 0 -53.12 146.5 -67.94 0zm139.65 -198.81l164.28 0 -50.63 -134.17c-15.59,-40.65 -26.86,-74.11 -34.27,-100.32 -6.25,31.01 -14.99,61.86 -26.22,92.53l-53.16 141.96zm-4097.01 198.81l186.08 -484.19 68.88 0 198.25 484.19 -72.99 0 -56.54 -146.5 -202.49 0 -53.16 146.5 -68.03 0zm139.65 -198.81l164.28 0 -50.59 -134.17c-15.42,-40.65 -26.9,-74.11 -34.27,-100.32 -6.3,31.01 -15.04,61.86 -26.26,92.53l-53.16 141.96zm682.44 -285.38l64.08 0 0 279.68c0,48.75 -5.48,87.39 -16.45,116.05 -11.01,28.57 -30.84,51.79 -59.54,69.82 -28.79,17.95 -66.57,27.03 -113.26,27.03 -45.41,0 -82.38,-7.88 -111.29,-23.52 -28.79,-15.64 -49.43,-38.3 -61.77,-67.98 -12.34,-29.56 -18.42,-70.04 -18.42,-121.4l0 -279.68 64.13 0 0 279.34c0,42.15 3.86,73.04 11.78,93 7.71,19.96 21.12,35.38 40.22,46.09 18.93,10.88 42.24,16.24 69.82,16.24 46.95,0 80.58,-10.67 100.71,-32.08 20.09,-21.38 29.99,-62.37 29.99,-123.24l0 -279.34zm294.08 484.19l0 -426.96 -159.48 0 0 -57.23 383.73 0 0 57.23 -160.17 0 0 426.96 -64.08 0zm270.47 -235.73c0,-80.32 21.63,-143.33 64.73,-188.78 43.22,-45.45 98.91,-68.2 167.11,-68.2 44.72,0 85.12,10.62 120.97,32.04 35.77,21.38 63.23,50.98 82.03,89.23 18.76,38.21 28.19,81.52 28.19,130.1 0,49.05 -9.81,92.96 -29.69,131.72 -19.75,38.72 -47.76,68.07 -84.09,87.99 -36.37,19.96 -75.56,30.03 -117.67,30.03 -45.58,0 -86.32,-11.05 -122.17,-33.11 -35.94,-22.15 -63.23,-52.22 -81.65,-90.17 -18.51,-38.04 -27.76,-78.43 -27.76,-120.84zm66.14 0.99c0,58.34 15.64,104.18 47.08,137.76 31.27,33.67 70.64,50.38 118.02,50.38 48.32,0 87.94,-16.92 119.13,-50.89 31.19,-33.76 46.61,-81.99 46.61,-144.15 0,-39.58 -6.55,-73.94 -19.83,-103.45 -13.37,-29.3 -32.9,-52 -58.52,-68.37 -25.53,-16.02 -54.49,-24.16 -86.36,-24.16 -45.45,0 -84.43,15.59 -117.12,46.78 -32.6,31.1 -49.01,83.28 -49.01,156.1zm477.59 234.75l0 -484.19 96.43 0 114.63 342.87c10.58,31.96 18.29,55.82 23.26,71.67 5.48,-17.65 14.01,-43.48 25.57,-77.62l116.05 -336.91 86.06 0 0 484.19 -61.69 0 0 -405.28 -140.72 405.28 -57.79 0 -139.99 -412.18 0 412.18 -61.81 0zm545.96 -235.73c0,-80.32 21.63,-143.33 64.86,-188.78 43.09,-45.45 98.7,-68.2 166.94,-68.2 44.85,0 85.16,10.62 121.01,32.04 35.81,21.38 63.23,50.98 82.08,89.23 18.81,38.21 28.23,81.52 28.23,130.1 0,49.05 -9.9,92.96 -29.81,131.72 -19.75,38.72 -47.76,68.07 -84.09,87.99 -36.37,19.96 -75.56,30.03 -117.63,30.03 -45.58,0 -86.27,-11.05 -122.13,-33.11 -35.98,-22.15 -63.27,-52.22 -81.73,-90.17 -18.38,-38.04 -27.72,-78.43 -27.72,-120.84zm66.1 0.99c0,58.34 15.68,104.18 47.12,137.76 31.31,33.67 70.72,50.38 118.02,50.38 48.41,0 87.86,-16.92 119.13,-50.89 31.19,-33.76 46.61,-81.99 46.61,-144.15 0,-39.58 -6.55,-73.94 -19.88,-103.45 -13.32,-29.3 -32.86,-52 -58.39,-68.37 -25.7,-16.02 -54.62,-24.16 -86.44,-24.16 -45.41,0 -84.35,15.59 -117.16,46.78 -32.6,31.1 -49.01,83.28 -49.01,156.1zm602.8 234.75l0 -426.96 -159.48 0 0 -57.23 383.78 0 0 57.23 -160.25 0 0 426.96 -64.04 0zm301.02 0l0 -484.19 64.04 0 0 484.19 -64.04 0zm315.28 0l-187.54 -484.19 69.44 0 125.81 351.78c10.15,28.27 18.59,54.66 25.49,79.25 7.37,-26.39 16.11,-52.82 26,-79.25l130.82 -351.78 65.37 0 -189.6 484.19 -65.8 0zm-13354.72 -198.81l164.24 0 -50.55 -134.12c-15.55,-40.74 -26.82,-74.11 -34.36,-100.37 -6.25,30.97 -14.91,61.86 -26.17,92.57l-53.16 141.92zm342.87 43.27l60.57 -5.23c2.74,24.25 9.51,44.04 19.96,59.54 10.41,15.51 26.6,28.1 48.75,37.65 21.98,9.64 46.65,14.48 74.24,14.48 24.42,0 46.05,-3.68 64.77,-11.01 18.72,-7.28 32.56,-17.22 41.72,-29.81 9.17,-12.59 13.71,-26.52 13.71,-41.51 0,-15.16 -4.37,-28.49 -13.15,-39.84 -8.87,-11.39 -23.47,-20.78 -43.61,-28.49 -13.02,-5.05 -41.68,-13.02 -86.19,-23.65 -44.59,-10.62 -75.69,-20.82 -93.47,-30.2 -23.13,-12.08 -40.4,-27.16 -51.7,-45.11 -11.39,-17.95 -17.01,-38.04 -17.01,-60.31 0,-24.42 6.98,-47.33 20.78,-68.58 13.84,-21.16 34.1,-37.27 60.83,-48.32 26.6,-10.97 56.2,-16.45 88.76,-16.45 35.94,0 67.68,5.74 95.01,17.22 27.42,11.57 48.41,28.57 63.23,50.98 14.86,22.49 22.75,47.93 23.9,76.42l-61.6 4.63c-3.3,-30.67 -14.39,-53.76 -33.41,-69.4 -19.02,-15.51 -47.12,-23.39 -84.43,-23.39 -38.77,0 -66.95,7.07 -84.65,21.29 -17.69,14.22 -26.69,31.27 -26.69,51.36 0,17.35 6.25,31.61 18.85,42.88 12.38,11.27 44.51,22.75 96.64,34.48 52.09,11.87 87.82,22.15 107.09,30.97 28.27,12.98 49.05,29.34 62.5,49.26 13.41,19.96 20.18,42.97 20.18,68.97 0,25.79 -7.33,50.03 -22.15,72.82 -14.74,22.79 -35.9,40.57 -63.57,53.16 -27.63,12.68 -58.77,19.11 -93.3,19.11 -43.91,0 -80.58,-6.43 -110.13,-19.19 -29.69,-12.89 -52.86,-32.13 -69.78,-57.74 -16.83,-25.57 -25.79,-54.53 -26.64,-87zm451.24 0l60.57 -5.23c2.78,24.25 9.51,44.04 19.88,59.54 10.45,15.51 26.69,28.1 48.88,37.65 21.98,9.64 46.65,14.48 74.24,14.48 24.37,0 46.05,-3.68 64.68,-11.01 18.76,-7.28 32.56,-17.22 41.77,-29.81 9.12,-12.59 13.75,-26.52 13.75,-41.51 0,-15.16 -4.5,-28.49 -13.28,-39.84 -8.87,-11.39 -23.35,-20.78 -43.61,-28.49 -12.89,-5.05 -41.64,-13.02 -86.06,-23.65 -44.59,-10.62 -75.82,-20.82 -93.47,-30.2 -23.13,-12.08 -40.4,-27.16 -51.75,-45.11 -11.35,-17.95 -17.01,-38.04 -17.01,-60.31 0,-24.42 6.98,-47.33 20.82,-68.58 13.79,-21.16 34.1,-37.27 60.7,-48.32 26.77,-10.97 56.33,-16.45 88.84,-16.45 35.98,0 67.6,5.74 95.01,17.22 27.37,11.57 48.36,28.57 63.18,50.98 14.82,22.49 22.7,47.93 23.9,76.42l-61.56 4.63c-3.26,-30.67 -14.44,-53.76 -33.37,-69.4 -19.11,-15.51 -47.16,-23.39 -84.56,-23.39 -38.68,0 -66.83,7.07 -84.6,21.29 -17.69,14.22 -26.64,31.27 -26.64,51.36 0,17.35 6.3,31.61 18.89,42.88 12.34,11.27 44.42,22.75 96.6,34.48 52.09,11.87 87.73,22.15 107.09,30.97 28.23,12.98 49.09,29.34 62.5,49.26 13.41,19.96 20.18,42.97 20.18,68.97 0,25.79 -7.33,50.03 -22.1,72.82 -14.82,22.79 -35.98,40.57 -63.61,53.16 -27.59,12.68 -58.73,19.11 -93.34,19.11 -43.87,0 -80.53,-6.43 -110.18,-19.19 -29.56,-12.89 -52.82,-32.13 -69.65,-57.74 -16.96,-25.57 -25.79,-54.53 -26.69,-87zm453.6 -80.19c0,-80.32 21.63,-143.33 64.77,-188.78 43.18,-45.49 98.78,-68.24 167.06,-68.24 44.72,0 85.03,10.67 120.89,32.08 35.85,21.38 63.27,51.02 82.12,89.23 18.76,38.21 28.23,81.52 28.23,130.14 0,49.01 -9.9,92.87 -29.77,131.68 -19.75,38.72 -47.76,68.07 -84.09,87.99 -36.33,19.96 -75.56,30.03 -117.63,30.03 -45.62,0 -86.36,-11.05 -122.17,-33.16 -35.98,-22.06 -63.23,-52.13 -81.69,-90.13 -18.46,-38.04 -27.72,-78.39 -27.72,-120.84zm66.14 0.99c0,58.34 15.64,104.18 46.99,137.81 31.36,33.63 70.72,50.33 118.02,50.33 48.41,0 87.94,-16.96 119.13,-50.85 31.23,-33.8 46.74,-81.99 46.74,-144.27 0,-39.5 -6.6,-73.85 -19.92,-103.37 -13.37,-29.3 -32.86,-52 -58.47,-68.28 -25.66,-16.15 -54.49,-24.25 -86.44,-24.25 -45.41,0 -84.35,15.55 -117.03,46.78 -32.64,31.1 -49.01,83.28 -49.01,156.1zm825 65.03l64.08 16.15c-13.41,52.73 -37.61,92.83 -72.48,120.41 -34.91,27.67 -77.49,41.55 -128.04,41.55 -52.26,0 -94.67,-10.67 -127.31,-32 -32.64,-21.25 -57.57,-52 -74.49,-92.27 -17.22,-40.27 -25.75,-83.53 -25.75,-129.88 0,-50.38 9.6,-94.41 29,-131.94 19.19,-37.53 46.61,-66.01 82.2,-85.5 35.6,-19.41 74.79,-29.17 117.46,-29.17 48.41,0 89.19,12.29 122.13,36.88 33.11,24.67 56.03,59.46 69.01,104.09l-62.97 14.86c-11.27,-35.17 -27.54,-60.87 -48.96,-77.02 -21.42,-15.98 -48.15,-24.07 -80.53,-24.07 -37.31,0 -68.45,8.95 -93.38,26.77 -25.02,17.86 -42.49,41.85 -52.65,71.79 -10.15,30.11 -15.12,61.13 -15.12,93.08 0,41.17 5.91,76.98 17.91,107.69 11.99,30.71 30.71,53.67 56.03,68.88 25.32,15.25 52.69,22.79 82.2,22.79 35.9,0 66.27,-10.37 91.2,-30.97 24.85,-20.73 41.68,-51.4 50.46,-92.14zm154 169.72l0 -484.19 64.08 0 0 484.19 -64.08 0zm123.88 0l186 -484.19 68.97 0 198.21 484.19 -73.04 0 -56.46 -146.59 -202.53 0 -53.16 146.59 -67.98 0zm139.65 -198.81l164.24 0 -50.55 -134.12c-15.55,-40.74 -26.86,-74.11 -34.27,-100.37 -6.3,30.97 -14.99,61.86 -26.22,92.57l-53.2 141.92zm710.24 29.09l64.04 16.15c-13.45,52.73 -37.61,92.83 -72.48,120.41 -34.87,27.67 -77.53,41.55 -128.04,41.55 -52.26,0 -94.63,-10.67 -127.31,-32 -32.6,-21.25 -57.57,-52 -74.54,-92.27 -17.22,-40.27 -25.75,-83.53 -25.75,-129.88 0,-50.38 9.68,-94.41 29,-131.94 19.19,-37.53 46.74,-66.01 82.33,-85.5 35.55,-19.41 74.66,-29.17 117.37,-29.17 48.45,0 89.14,12.29 122.17,36.88 33.03,24.67 56.03,59.46 68.97,104.09l-63.01 14.86c-11.22,-35.17 -27.46,-60.87 -48.96,-77.02 -21.33,-15.98 -48.11,-24.07 -80.53,-24.07 -37.27,0 -68.32,8.95 -93.3,26.77 -25.06,17.86 -42.54,41.85 -52.69,71.79 -10.15,30.11 -15.16,61.13 -15.16,93.08 0,41.17 6,76.98 17.91,107.69 12.08,30.71 30.71,53.67 56.12,68.88 25.23,15.25 52.6,22.79 82.16,22.79 35.85,0 66.27,-10.37 91.24,-30.97 24.85,-20.73 41.64,-51.4 50.46,-92.14zm-192.89 220.61c4.37,-15.08 8.7,-30.2 13.02,-45.28 14.65,2.06 29.04,2.61 43.39,2.7l-5.87 19.49c18.72,2.23 32.73,7.97 42.28,17.35 9.47,9.34 14.22,19.7 14.22,31.19 0,16.49 -7.92,31.06 -23.77,43.82 -15.89,12.55 -39.8,18.89 -71.75,18.89 -17.95,0 -33.84,-1.33 -47.59,-3.86l3.73 -38.64c14.01,0.86 24.42,1.16 30.97,1.16 20.78,0 35.3,-2.74 43.57,-8.48 6.55,-4.41 9.72,-9.85 9.72,-16.19 0,-4.07 -1.24,-7.41 -3.81,-10.54 -2.57,-3.04 -7.24,-5.65 -14.09,-7.92 -6.85,-2.23 -18.16,-3.38 -34.01,-3.68zm282.85 -50.89l185.91 -484.19 69.01 0 198.21 484.19 -72.99 0 -56.5 -146.59 -202.53 0 -53.2 146.59 -67.9 0zm139.61 -198.81l164.19 0 -50.5 -134.12c-15.55,-40.74 -26.9,-74.11 -34.31,-100.37 -6.21,30.97 -14.95,61.86 -26.17,92.57l-53.2 141.92zm-23.43 -315.15c-0.26,-22.79 6.04,-41.12 18.89,-54.79 12.59,-13.71 28.62,-20.56 48.19,-20.56 13.58,0 32.08,6 55.73,17.86 13.02,6.64 23.35,9.98 31.06,9.98 7.11,0 12.51,-1.97 16.19,-5.78 3.81,-3.73 6.51,-11.44 7.88,-22.96l43.05 0c-0.69,25.02 -7.11,43.87 -19.02,56.42 -12.04,12.64 -27.29,18.89 -45.75,18.89 -13.84,0 -32.21,-6.17 -54.79,-18.51 -14.82,-7.92 -25.57,-11.87 -32.43,-11.87 -7.45,0 -13.58,2.74 -18.12,7.97 -4.88,5.27 -7.15,12.94 -6.85,23.35l-44.04 0zm368.61 278.23c0,-80.32 21.63,-143.33 64.81,-188.78 43.18,-45.49 98.87,-68.24 167.06,-68.24 44.68,0 85.07,10.67 120.93,32.08 35.77,21.38 63.18,51.02 82.03,89.23 18.85,38.21 28.19,81.52 28.19,130.14 0,49.01 -9.81,92.87 -29.6,131.68 -19.83,38.72 -47.85,68.07 -84.17,87.99 -36.33,19.96 -75.56,30.03 -117.63,30.03 -45.66,0 -86.27,-11.05 -122.17,-33.16 -35.94,-22.06 -63.18,-52.13 -81.65,-90.13 -18.55,-38.04 -27.8,-78.39 -27.8,-120.84zm66.18 0.99c0,58.34 15.64,104.18 47.08,137.81 31.31,33.63 70.64,50.33 117.97,50.33 48.32,0 87.99,-16.96 119.13,-50.85 31.1,-33.8 46.69,-81.99 46.69,-144.27 0,-39.5 -6.55,-73.85 -19.96,-103.37 -13.24,-29.3 -32.9,-52 -58.43,-68.28 -25.66,-16.15 -54.49,-24.25 -86.49,-24.25 -45.32,0 -84.3,15.55 -116.94,46.78 -32.68,31.1 -49.05,83.28 -49.05,156.1zm667.53 234.75l0 -484.19 166.89 0c37.57,0 66.31,2.27 86.06,6.94 27.84,6.38 51.45,17.95 71.02,34.7 25.57,21.59 44.72,49.05 57.32,82.72 12.64,33.63 18.98,71.97 18.98,115.23 0,36.71 -4.37,69.31 -12.85,97.63 -8.57,28.4 -19.53,51.88 -33.03,70.51 -13.45,18.63 -28.1,33.37 -44.21,43.95 -15.94,10.67 -35.13,18.76 -57.66,24.29 -22.62,5.48 -48.62,8.22 -77.75,8.22l-174.77 0zm64.08 -57.06l103.32 0c31.91,0 57.02,-2.91 75.22,-8.95 18.12,-6 32.47,-14.26 43.44,-25.06 15.08,-15.25 26.99,-35.73 35.47,-61.39 8.35,-25.57 12.72,-56.72 12.72,-93.3 0,-50.59 -8.35,-89.44 -24.97,-116.82 -16.66,-27.12 -36.8,-45.32 -60.53,-54.49 -17.26,-6.64 -44.89,-9.9 -82.93,-9.9l-101.74 0 0 369.9zm425.76 57.06l0 -484.19 350.15 0 0 57.23 -286.07 0 0 148.17 267.82 0 0 56.93 -267.82 0 0 164.79 297.2 0 0 57.06 -361.29 0zm637.97 0l0 -484.19 182.44 0c32.21,0 56.8,1.58 73.81,4.67 23.69,4.03 43.65,11.48 59.76,22.53 15.98,11.14 29.04,26.82 38.81,46.74 9.72,20.05 14.69,42.11 14.69,66.23 0,41.12 -13.15,75.91 -39.24,104.35 -26.3,28.49 -73.68,42.79 -142.13,42.79l-124.1 0 0 196.88 -64.04 0zm64.04 -253.94l125 0c41.51,0 70.85,-7.71 88.33,-23.13 17.35,-15.38 26.04,-37.05 26.04,-65.03 0,-20.3 -5.14,-37.7 -15.25,-52.09 -10.28,-14.44 -23.86,-24.03 -40.61,-28.57 -10.75,-2.78 -30.67,-4.2 -59.67,-4.2l-123.84 0 0 173.02zm388.1 253.94l0 -484.19 214.66 0c43.09,0 75.95,4.37 98.48,13.07 22.36,8.65 40.4,24.12 53.85,46.05 13.37,22.02 19.96,46.39 19.96,73.08 0,34.31 -10.97,63.23 -33.16,86.83 -22.23,23.6 -56.63,38.42 -103.07,44.89 16.96,8.18 29.73,16.24 38.6,24.16 18.72,17.18 36.41,38.55 53.2,64.34l84.13 131.77 -80.53 0 -64.08 -100.75c-18.72,-28.96 -34.06,-51.23 -46.18,-66.61 -12.08,-15.38 -23,-26.22 -32.51,-32.38 -9.68,-6.21 -19.41,-10.58 -29.39,-12.85 -7.15,-1.58 -18.98,-2.36 -35.6,-2.36l-74.32 0 0 214.96 -64.04 0zm64.04 -270.43l137.76 0c29.21,0 52.13,-3.13 68.75,-9.17 16.45,-6.04 29,-15.68 37.57,-29.04 8.61,-13.28 12.85,-27.72 12.85,-43.35 0,-22.92 -8.27,-41.77 -24.93,-56.54 -16.66,-14.78 -42.97,-22.1 -78.73,-22.1l-153.27 0 0 160.21zm403.95 34.7c0,-80.32 21.63,-143.33 64.81,-188.78 43.14,-45.49 98.74,-68.24 167.06,-68.24 44.72,0 85.03,10.67 120.89,32.08 35.85,21.38 63.27,51.02 82.12,89.23 18.76,38.21 28.19,81.52 28.19,130.14 0,49.01 -9.85,92.87 -29.69,131.68 -19.83,38.72 -47.85,68.07 -84.17,87.99 -36.28,19.96 -75.61,30.03 -117.63,30.03 -45.58,0 -86.27,-11.05 -122.17,-33.16 -35.98,-22.06 -63.18,-52.13 -81.73,-90.13 -18.38,-38.04 -27.67,-78.39 -27.67,-120.84zm66.1 0.99c0,58.34 15.72,104.18 47.08,137.81 31.36,33.63 70.72,50.33 118.02,50.33 48.41,0 87.94,-16.96 119.09,-50.85 31.23,-33.8 46.78,-81.99 46.78,-144.27 0,-39.5 -6.55,-73.85 -19.92,-103.37 -13.32,-29.3 -32.94,-52 -58.47,-68.28 -25.66,-16.15 -54.62,-24.25 -86.44,-24.25 -45.41,0 -84.35,15.55 -117.03,46.78 -32.68,31.1 -49.09,83.28 -49.09,156.1zm602.8 234.75l0 -426.96 -159.48 0 0 -57.23 383.73 0 0 57.23 -160.17 0 0 426.96 -64.08 0zm291.46 0l0 -484.19 350.02 0 0 57.23 -285.98 0 0 148.17 267.77 0 0 56.93 -267.77 0 0 164.79 297.16 0 0 57.06 -361.2 0zm795.27 -169.72l64.08 16.15c-13.45,52.73 -37.61,92.83 -72.52,120.41 -34.83,27.67 -77.49,41.55 -128.04,41.55 -52.13,0 -94.63,-10.67 -127.23,-32 -32.68,-21.25 -57.66,-52 -74.66,-92.27 -17.09,-40.27 -25.57,-83.53 -25.57,-129.88 0,-50.38 9.6,-94.41 28.91,-131.94 19.19,-37.53 46.69,-66.01 82.29,-85.5 35.6,-19.41 74.71,-29.17 117.46,-29.17 48.36,0 89.06,12.29 122.13,36.88 32.94,24.67 55.95,59.46 69.01,104.09l-63.06 14.86c-11.22,-35.17 -27.5,-60.87 -48.88,-77.02 -21.42,-15.98 -48.19,-24.07 -80.58,-24.07 -37.35,0 -68.41,8.95 -93.34,26.77 -25.06,17.86 -42.49,41.85 -52.69,71.79 -10.2,30.11 -15.21,61.13 -15.21,93.08 0,41.17 6,76.98 18.03,107.69 11.95,30.71 30.67,53.67 55.9,68.88 25.4,15.25 52.82,22.79 82.29,22.79 35.73,0 66.23,-10.37 91.2,-30.97 24.76,-20.73 41.68,-51.4 50.46,-92.14zm-192.81 220.61c4.41,-15.08 8.78,-30.16 13.24,-45.24 0,0 0,0 0,0 15.25,2.1 29.26,2.57 43.09,2.74l-5.87 19.41c18.72,2.23 32.81,7.97 42.37,17.35 9.38,9.34 14.18,19.7 14.18,31.19 0,16.49 -7.97,31.06 -23.73,43.82 -15.89,12.55 -39.92,18.89 -71.75,18.89 -18.03,0 -33.93,-1.33 -47.59,-3.86l3.64 -38.64c14.09,0.86 24.46,1.16 31.1,1.16 20.6,0 35.21,-2.74 43.48,-8.48 6.51,-4.41 9.68,-9.85 9.68,-16.19 0,-4.07 -1.16,-7.41 -3.81,-10.54 -2.53,-3.04 -7.2,-5.65 -14.05,-7.92 -6.85,-2.23 -18.25,-3.38 -33.97,-3.68zm282.68 -50.89l186.04 -484.19 68.92 0 198.25 484.19 -72.99 0 -56.5 -146.59 -202.49 0 -53.2 146.59 -68.03 0zm139.69 -198.81l164.24 0 -50.5 -134.12c-15.55,-40.74 -26.94,-74.11 -34.36,-100.37 -6.3,30.97 -14.91,61.86 -26.22,92.57l-53.16 141.92zm-23.39 -315.15c-0.21,-22.79 6.04,-41.12 18.85,-54.79 12.68,-13.71 28.62,-20.56 48.28,-20.56 13.49,0 32.08,6 55.65,17.86 13.11,6.64 23.39,9.98 31.14,9.98 7.07,0 12.42,-1.97 16.24,-5.78 3.77,-3.73 6.25,-11.44 7.8,-22.96l43.09 0c-0.77,25.02 -7.11,43.87 -19.11,56.42 -12.08,12.64 -27.29,18.89 -45.75,18.89 -13.75,0 -32.08,-6.17 -54.79,-18.51 -14.78,-7.92 -25.53,-11.87 -32.43,-11.87 -7.41,0 -13.58,2.74 -18.03,7.97 -4.93,5.27 -7.28,12.94 -7.07,23.35l-43.87 0zm368.61 278.23c0,-80.32 21.63,-143.33 64.73,-188.78 43.27,-45.49 98.82,-68.24 167.06,-68.24 44.81,0 85.12,10.67 120.97,32.08 35.9,21.38 63.23,51.02 82.12,89.23 18.76,38.21 28.19,81.52 28.19,130.14 0,49.01 -9.9,92.87 -29.73,131.68 -19.79,38.72 -47.76,68.07 -84.13,87.99 -36.28,19.96 -75.56,30.03 -117.59,30.03 -45.62,0 -86.4,-11.05 -122.17,-33.16 -35.98,-22.06 -63.23,-52.13 -81.69,-90.13 -18.46,-38.04 -27.76,-78.39 -27.76,-120.84zm66.1 0.99c0,58.34 15.72,104.18 47.08,137.81 31.36,33.63 70.77,50.33 118.02,50.33 48.41,0 87.9,-16.96 119.13,-50.85 31.23,-33.8 46.74,-81.99 46.74,-144.27 0,-39.5 -6.6,-73.85 -19.96,-103.37 -13.37,-29.3 -32.86,-52 -58.43,-68.28 -25.66,-16.15 -54.57,-24.25 -86.44,-24.25 -45.41,0 -84.35,15.55 -117.03,46.78 -32.68,31.1 -49.09,83.28 -49.09,156.1z"/>
    <path class="fil0" d="M17761.52 1057.47c0,179.4 31.44,159.82 246.57,159.74l693.23 3c107.86,14.91 162.69,56.37 162.69,185.48 0,67.6 -277.63,43.52 -377.26,43.52 -144.92,0 -290.18,0.47 -435.18,0 -249.53,-0.94 -522.23,94.37 -522.23,348.05l0 391.74c0,145.17 234.66,319.14 391.83,319.14l623.62 0c148.6,0 203.52,-283.49 15.64,-291.16 -487.78,-19.75 -494.34,86.23 -494.34,-303.54 0,-232.9 225.41,-174.13 580.27,-174.13 260.19,0 203.18,154.86 203.18,406.22 0,276.9 -30.93,362.61 362.61,362.61 99.12,0 202.92,-63.91 202.92,-159.61l0 -971.93c0,-75.44 -18.98,-127.61 -40.99,-176.36 -14.39,-32.08 -15.76,-34.95 -36.84,-64.68 -79.59,-111.16 -211.31,-194.05 -371.65,-194.05l-1087.97 0c-70.17,0 -116.09,45.92 -116.09,115.96zm-8717.19 -697l-328.47 428.63c-62.03,80.96 138.62,241.9 204.08,156.4l328.52 -428.58c67.38,-88.03 -133.91,-248.03 -204.12,-156.44zm-2278.5 798.57c0,208.87 235.69,546.09 338.75,749.39 45.58,89.74 221,441.09 276.21,507.1 147.23,176.06 502.05,92.31 502.05,-125.04 0,-136.78 -273.09,-573.72 -348.14,-725.06 -51.7,-104.18 -211.87,-427.08 -286.15,-511.77 -175.37,-199.83 -482.73,-61.77 -482.73,105.38zm6353.75 -28.96l0 1218.45c0,230.33 580.31,243.14 580.31,0l0 -1218.45c0,-250.21 -580.31,-260.49 -580.31,0zm2727.21 0l0 739.79c0,288.76 371.35,638.27 710.66,638.27l827.01 0c110.9,0 130.4,-91.93 130.4,-174.09 0,-121.44 -95.31,-116.94 -217.48,-116.17 -137.34,0.86 -540.52,16.19 -642.94,-24.2 -417.06,-165.14 -174.3,-857.85 -247.85,-1115.69 -60.01,-210.42 -559.79,-175.72 -559.79,52.09zm-5831.52 0l0 739.79c0,94.41 40.74,191.87 80.79,252.87 125.68,191.65 358.59,385.4 630.09,385.4l826.8 0c111.16,0 130.57,-91.93 130.57,-174.09 0,-121.44 -95.31,-116.94 -217.53,-116.17 -137.46,0.86 -540.52,16.19 -642.94,-24.2 -417.15,-165.14 -174.39,-857.85 -247.85,-1115.69 -60.1,-210.42 -559.92,-175.72 -559.92,52.09zm-4743.55 1160.5c0,184.11 200.65,217.57 348.26,217.57 174.73,0 214.14,-159.18 290.01,-304.83l212.81 -396.24c14.78,-29.81 120.97,-268.33 133.05,-267.82 10.32,0.34 159.7,268.07 176.4,301.57 82.2,139.48 151.73,322.78 354.9,195.25 177.73,-111.59 23.56,-277.84 -87.43,-462.64 -65.41,-108.63 -120.76,-199.88 -184.93,-308.3 -57.19,-96.43 -118.4,-212.81 -213.59,-265.29 -102.25,-56.2 -282.77,-81.95 -366.43,9.77l-174.82 303.97c-58.64,115.75 -111.03,213.33 -168.91,324.36 -66.65,128.13 -319.35,539.32 -319.35,652.62zm5860.57 -1233.1c0,251.32 80.66,188.61 667.23,188.61l0 1131.5c0,40.22 52.09,86.96 83.06,105.55 109.75,65.88 511.82,73.98 511.82,-120.03l0 -1117.02 536.53 0c162.61,0 157.13,-304.57 0,-304.57l-1682.55 0c-70.25,0 -116.09,45.92 -116.09,115.96zm2756.26 261.22l0 1029.84c0,193.07 393.29,185.44 497.04,120.11 53.25,-33.71 69.31,-62.71 69.61,-148.13l-1.11 -842.39c-1.16,-330.49 17.48,-275.53 594.79,-275.53 205.36,0 188.65,95.74 188.65,217.57 0,417.19 -594.79,24.37 -594.79,319.14 0,70.51 3.3,159.61 115.96,159.61l696.31 0c377.61,0 416.72,-625.03 229.13,-823.84 -51.96,-55 -156.65,-119.09 -258.18,-119.09l-1145.85 0c-222.02,0 -391.57,177.86 -391.57,362.7zm-5831.52 -159.65l0 957.41c0,114.12 54.32,223.82 115.7,276.08 67.21,57.27 165.61,115.62 290.43,115.62l1000.89 0c198.25,0 348.09,-204.59 348.09,-406.22l0 -957.36c0,-98.27 -139.52,-203.05 -246.53,-203.05 -97.24,0 -172.85,-9.38 -244.26,60.4 -54.02,52.95 -47.08,85.72 -46.05,185.91l-0.47 913.45c-23.73,179.87 -627.78,176.27 -675.62,9.68l-5.14 -923.31c0.77,-91.11 -3.13,-135.02 -47.38,-184.67 -114.46,-128.85 -489.67,-115.79 -489.67,156.05z"/>
   </g>
   <g>
    <path class="fil1" d="M490.23 4309.18c0,205.15 269.27,430.64 524.5,172.8 175.85,-177.77 605.97,-589.22 733.71,-735.72l22.87 -27.33c1.67,-2.01 4.07,-4.93 5.65,-6.98l305.21 -310.05c279.6,-280.11 384.46,-86.7 653.09,182.1l891.78 891.69c289.36,291.21 530.62,-7.75 530.62,-153.87 0,-187.07 -193.24,-325.09 -361.16,-492.92 -248.88,-248.93 -542.79,-558.85 -803.32,-791.76 -104.44,-93.47 -148.13,-174.73 -290.43,-249.65 -215.56,-113.3 -557.99,-120.33 -767.81,2.4 -143.63,84 -687.1,655.06 -857.51,825.51l-433.38 420.66c-68.07,68.07 -153.83,142.09 -153.83,273.13z"/>
    <path class="fil1" d="M2738.44 2249.5c0,348.22 55,438.14 285.68,668.77l1048.69 1061.24c126.33,126.33 281.31,244.26 476.13,68.03 117.07,-105.81 120.07,-289.96 -30.2,-438.52 -213.8,-211.4 -515.24,-530.54 -715.68,-715.98 -36.03,-33.28 -57.53,-44.08 -94.46,-81.43l-270 -270.22c-280.07,-279.43 -86.57,-384.25 182.14,-653.01l891.69 -891.69c291.33,-289.36 -7.58,-530.62 -153.83,-530.62 -186.38,0 -320.21,188.31 -486.71,354.78 -145.39,145.39 -281.57,281.61 -427.04,426.96l-335.24 343.04c-107.44,120.07 -214.44,194.35 -279.21,323.55 -45.36,90.3 -91.97,206.13 -91.97,335.11z"/>
    <path class="fil1" d="M0.43 754.92c0,163.08 162.69,282.04 298.27,417.66l533.79 533.88c35.81,33.2 57.44,43.99 94.37,81.48l269.87 270c280.03,279.64 86.57,384.46 -182.01,653.09l-891.87 891.74c-291.29,289.36 7.84,530.58 153.96,530.58 186.3,0 320.12,-188.31 486.63,-354.73 230.21,-230.16 538.59,-524.45 756.24,-763.31 1.88,-1.88 4.33,-4.75 6.08,-6.73 1.63,-1.93 4.07,-4.71 5.83,-6.68 221.04,-251.07 365.36,-288.64 365.36,-764.9 0,-255.87 -127.44,-397.61 -285.77,-555.77l-738.38 -743.48c-81.35,-97.33 -219.24,-226.82 -310.31,-317.85 -126.2,-126.24 -281.18,-244.08 -476.09,-67.94 -39.41,35.6 -85.97,132.79 -85.97,202.96z"/>
    <path class="fil1" d="M2261.15 1897.89c199.88,0 265.85,4.63 447.95,-92.1 107.22,-56.76 535.2,-495.49 647.82,-608.11 141.32,-141.28 273.3,-273.3 414.45,-414.45 72.22,-72.18 135.15,-135.11 207.29,-207.29 118.7,-118.74 166.42,-127.65 166.42,-310.91 0,-144.32 -235.99,-424.17 -511.86,-147.53l-1067.58 1067.63c-172.42,172.46 -276.94,219.71 -477.16,18.68l-1073.75 -1073.75c-70.51,-70.51 -121.49,-128.68 -248.2,-128.68 -154.47,0 -359.79,182.57 -251.54,415 36.45,78.43 972.18,989.96 1108.79,1126.65 165.14,165.14 330.74,354.86 637.37,354.86z"/>
   </g>
  </g>
 </g>
</svg>
